<svg width="55" height="62" viewBox="0 0 55 62" fill="none" xmlns="http://www.w3.org/2000/svg">
<path fill-rule="evenodd" clip-rule="evenodd" d="M37 59.3907C33.9679 60.5562 30.6746 61.1949 27.2321 61.1949C12.1922 61.1949 0 49.0027 0 33.9628C0 31.9838 0.211103 30.0541 0.61202 28.1949H25.7321V33.9627C25.7321 34.6282 26.1654 35.1924 26.7653 35.3887C26.8189 35.4062 26.8738 35.4208 26.9298 35.4323C27.0276 35.4523 27.1287 35.4628 27.2324 35.4628H37V59.3907ZM36.9468 32.4628H28.7321V28.1949H32C34.5127 28.1949 36.5925 30.0484 36.9468 32.4628Z" fill="white"/>
<path fill-rule="evenodd" clip-rule="evenodd" d="M33.7679 0.194946H20.6964V4.55209H33.7679V0.194946ZM27.2321 61.1949C42.272 61.1949 54.4643 49.0027 54.4643 33.9628C54.4643 18.9229 42.272 6.73066 27.2321 6.73066C12.1922 6.73066 0 18.9229 0 33.9628C0 49.0027 12.1922 61.1949 27.2321 61.1949ZM28.7321 16.5342C28.7321 15.7058 28.0606 15.0342 27.2321 15.0342C26.4037 15.0342 25.7321 15.7058 25.7321 16.5342V33.9627C25.7321 34.6282 26.1654 35.1924 26.7653 35.3887C26.8189 35.4062 26.8738 35.4208 26.9298 35.4323C27.0276 35.4523 27.1287 35.4628 27.2324 35.4628H44.6609C45.4893 35.4628 46.1609 34.7912 46.1609 33.9628C46.1609 33.1344 45.4893 32.4628 44.6609 32.4628H28.7321V16.5342Z" fill="white"/>
<path d="M43.6987 0L44.4523 4.01399L48.4094 3.00326L49.163 7.01725L53.1201 6.00652L49.1157 12.2874L39.6944 6.2809L43.6987 0Z" fill="white"/>
</svg>
